<svg width="128" height="128" viewBox="0 0 128 128" fill="none" xmlns="http://www.w3.org/2000/svg">
<path d="M31.12 35.76V85.296C31.12 86.896 31.568 88.112 32.464 88.944C33.36 89.776 34.64 90.192 36.304 90.192H59.44L60.112 101.232C55.568 101.744 50.8 102.032 45.808 102.096C40.88 102.224 35.952 102.288 31.024 102.288C26.224 102.288 22.576 101.008 20.08 98.448C17.648 95.824 16.432 92.496 16.432 88.464V35.76H31.12ZM89.9808 34.512C93.2448 34.512 96.7968 34.704 100.637 35.088C104.477 35.408 108.221 36.112 111.869 37.2L110.909 46.896C108.093 46.832 104.797 46.768 101.021 46.704C97.2448 46.64 93.5328 46.608 89.8848 46.608C88.0928 46.608 86.5568 46.672 85.2768 46.8C84.0608 46.864 83.0688 47.12 82.3008 47.568C81.5328 47.952 80.9888 48.56 80.6688 49.392C80.3488 50.224 80.1888 51.376 80.1888 52.848C80.1888 55.088 80.7008 56.72 81.7248 57.744C82.8128 58.768 84.6368 59.696 87.1968 60.528L99.9648 64.656C105.277 66.448 108.957 68.88 111.005 71.952C113.053 75.024 114.077 79.056 114.077 84.048C114.077 87.824 113.629 90.96 112.733 93.456C111.837 95.952 110.429 97.904 108.509 99.312C106.589 100.72 104.061 101.712 100.925 102.288C97.7888 102.928 93.9488 103.248 89.4048 103.248C87.2288 103.248 84.1248 103.088 80.0928 102.768C76.0608 102.512 71.4528 101.808 66.2688 100.656L67.2288 90.288C71.0048 90.352 74.2688 90.448 77.0208 90.576C79.8368 90.64 82.2368 90.704 84.2208 90.768C86.2048 90.768 87.9328 90.768 89.4048 90.768C91.9648 90.768 93.9488 90.608 95.3568 90.288C96.8288 89.968 97.8528 89.328 98.4288 88.368C99.0048 87.408 99.2928 86.032 99.2928 84.24C99.2928 82.704 99.0688 81.488 98.6208 80.592C98.2368 79.632 97.5648 78.896 96.6048 78.384C95.7088 77.808 94.4608 77.296 92.8608 76.848L79.4208 72.24C74.3648 70.384 70.7808 67.952 68.6688 64.944C66.5568 61.936 65.5008 57.968 65.5008 53.04C65.5008 49.2 65.9488 46.096 66.8448 43.728C67.8048 41.296 69.2448 39.408 71.1648 38.064C73.1488 36.72 75.6768 35.792 78.7488 35.28C81.8848 34.768 85.6288 34.512 89.9808 34.512Z" fill="white"/>
</svg>
